<mxfile host="app.diagrams.net" modified="2022-06-30T08:28:06.221Z" agent="5.0 (Windows NT 10.0; Win64; x64) AppleWebKit/537.36 (KHTML, like Gecko) Chrome/103.0.5060.53 Safari/537.36 Edg/103.0.1264.37" etag="o1OR8VS69TTgiBxKl2IJ" compressed="false" version="20.0.4" type="device" pages="2">
  <diagram id="zh0X_Mg4P6aXig5bxURh" name="第 1 页">
    <mxGraphModel dx="1038" dy="570" grid="1" gridSize="10" guides="1" tooltips="1" connect="1" arrows="1" fold="1" page="1" pageScale="1" pageWidth="827" pageHeight="1169" math="0" shadow="0">
      <root>
        <mxCell id="0" />
        <mxCell id="1" parent="0" />
        <mxCell id="0yLxcX_exsrHn8Y-KmPS-6" value="1(0|1)*101" style="edgeStyle=orthogonalEdgeStyle;rounded=0;orthogonalLoop=1;jettySize=auto;labelBackgroundColor=none;fontFamily=Times New Roman;" parent="1" source="0yLxcX_exsrHn8Y-KmPS-3" target="0yLxcX_exsrHn8Y-KmPS-4" edge="1">
          <mxGeometry y="20" relative="1" as="geometry">
            <mxPoint as="offset" />
          </mxGeometry>
        </mxCell>
        <mxCell id="0yLxcX_exsrHn8Y-KmPS-3" value="X" style="shape=ellipse;dashed=0;whitespace=wrap;aspect=fixed;perimeter=ellipsePerimeter;labelBackgroundColor=none;fontFamily=Times New Roman;" parent="1" vertex="1">
          <mxGeometry x="80" y="40" width="40" height="40" as="geometry" />
        </mxCell>
        <mxCell id="0yLxcX_exsrHn8Y-KmPS-4" value="Y" style="ellipse;shape=doubleEllipse;dashed=0;whitespace=wrap;aspect=fixed;labelBackgroundColor=none;fontFamily=Times New Roman;" parent="1" vertex="1">
          <mxGeometry x="200" y="40" width="40" height="40" as="geometry" />
        </mxCell>
        <mxCell id="Uk0a6IuN2yH7ym-k-NlL-1" value="ε" style="edgeStyle=orthogonalEdgeStyle;rounded=0;orthogonalLoop=1;jettySize=auto;labelBackgroundColor=none;fontFamily=Times New Roman;" parent="1" source="0yLxcX_exsrHn8Y-KmPS-10" target="0yLxcX_exsrHn8Y-KmPS-14" edge="1">
          <mxGeometry y="10" relative="1" as="geometry">
            <mxPoint as="offset" />
          </mxGeometry>
        </mxCell>
        <mxCell id="0yLxcX_exsrHn8Y-KmPS-10" value="1" style="shape=ellipse;dashed=0;whitespace=wrap;aspect=fixed;perimeter=ellipsePerimeter;labelBackgroundColor=none;fontFamily=Times New Roman;" parent="1" vertex="1">
          <mxGeometry x="160" y="150" width="40" height="40" as="geometry" />
        </mxCell>
        <mxCell id="Uk0a6IuN2yH7ym-k-NlL-2" value="ε" style="edgeStyle=orthogonalEdgeStyle;rounded=0;orthogonalLoop=1;jettySize=auto;labelBackgroundColor=none;fontFamily=Times New Roman;" parent="1" source="0yLxcX_exsrHn8Y-KmPS-14" target="0yLxcX_exsrHn8Y-KmPS-16" edge="1">
          <mxGeometry y="10" relative="1" as="geometry">
            <mxPoint as="offset" />
          </mxGeometry>
        </mxCell>
        <mxCell id="0yLxcX_exsrHn8Y-KmPS-14" value="2" style="shape=ellipse;dashed=0;whitespace=wrap;aspect=fixed;perimeter=ellipsePerimeter;labelBackgroundColor=none;fontFamily=Times New Roman;" parent="1" vertex="1">
          <mxGeometry x="240" y="150" width="40" height="40" as="geometry" />
        </mxCell>
        <mxCell id="Uk0a6IuN2yH7ym-k-NlL-10" value="1" style="edgeStyle=orthogonalEdgeStyle;curved=1;rounded=0;orthogonalLoop=1;jettySize=auto;labelBackgroundColor=none;fontFamily=Times New Roman;" parent="1" source="0yLxcX_exsrHn8Y-KmPS-16" target="Uk0a6IuN2yH7ym-k-NlL-7" edge="1">
          <mxGeometry y="10" relative="1" as="geometry">
            <mxPoint as="offset" />
          </mxGeometry>
        </mxCell>
        <mxCell id="0yLxcX_exsrHn8Y-KmPS-16" value="3" style="shape=ellipse;dashed=0;whitespace=wrap;aspect=fixed;perimeter=ellipsePerimeter;labelBackgroundColor=none;fontFamily=Times New Roman;" parent="1" vertex="1">
          <mxGeometry x="320" y="150" width="40" height="40" as="geometry" />
        </mxCell>
        <mxCell id="Uk0a6IuN2yH7ym-k-NlL-4" value="0" style="edgeStyle=orthogonalEdgeStyle;rounded=0;orthogonalLoop=1;jettySize=auto;curved=1;labelBackgroundColor=none;fontFamily=Times New Roman;" parent="1" source="0yLxcX_exsrHn8Y-KmPS-14" target="0yLxcX_exsrHn8Y-KmPS-14" edge="1">
          <mxGeometry y="10" relative="1" as="geometry">
            <Array as="points">
              <mxPoint x="270" y="130" />
            </Array>
            <mxPoint as="offset" />
          </mxGeometry>
        </mxCell>
        <mxCell id="Uk0a6IuN2yH7ym-k-NlL-6" value="1" style="edgeStyle=orthogonalEdgeStyle;curved=1;rounded=0;orthogonalLoop=1;jettySize=auto;labelBackgroundColor=none;fontFamily=Times New Roman;" parent="1" source="0yLxcX_exsrHn8Y-KmPS-14" target="0yLxcX_exsrHn8Y-KmPS-14" edge="1">
          <mxGeometry y="-10" relative="1" as="geometry">
            <Array as="points">
              <mxPoint x="270" y="210" />
            </Array>
            <mxPoint as="offset" />
          </mxGeometry>
        </mxCell>
        <mxCell id="Uk0a6IuN2yH7ym-k-NlL-11" value="0" style="edgeStyle=orthogonalEdgeStyle;curved=1;rounded=0;orthogonalLoop=1;jettySize=auto;labelBackgroundColor=none;fontFamily=Times New Roman;" parent="1" source="Uk0a6IuN2yH7ym-k-NlL-7" target="Uk0a6IuN2yH7ym-k-NlL-15" edge="1">
          <mxGeometry y="10" relative="1" as="geometry">
            <mxPoint x="480" y="170" as="targetPoint" />
            <mxPoint as="offset" />
          </mxGeometry>
        </mxCell>
        <mxCell id="Uk0a6IuN2yH7ym-k-NlL-7" value="4" style="shape=ellipse;dashed=0;whitespace=wrap;aspect=fixed;perimeter=ellipsePerimeter;labelBackgroundColor=none;fontFamily=Times New Roman;" parent="1" vertex="1">
          <mxGeometry x="400" y="150" width="40" height="40" as="geometry" />
        </mxCell>
        <mxCell id="Uk0a6IuN2yH7ym-k-NlL-13" value="1" style="edgeStyle=orthogonalEdgeStyle;curved=1;rounded=0;orthogonalLoop=1;jettySize=auto;labelBackgroundColor=none;fontFamily=Times New Roman;" parent="1" source="Uk0a6IuN2yH7ym-k-NlL-12" target="0yLxcX_exsrHn8Y-KmPS-10" edge="1">
          <mxGeometry y="10" relative="1" as="geometry">
            <mxPoint as="offset" />
          </mxGeometry>
        </mxCell>
        <mxCell id="Uk0a6IuN2yH7ym-k-NlL-12" value="X" style="shape=ellipse;dashed=0;whitespace=wrap;aspect=fixed;perimeter=ellipsePerimeter;labelBackgroundColor=none;fontFamily=Times New Roman;" parent="1" vertex="1">
          <mxGeometry x="80" y="150" width="40" height="40" as="geometry" />
        </mxCell>
        <mxCell id="Uk0a6IuN2yH7ym-k-NlL-14" value="Y" style="ellipse;shape=doubleEllipse;dashed=0;whitespace=wrap;aspect=fixed;labelBackgroundColor=none;fontFamily=Times New Roman;" parent="1" vertex="1">
          <mxGeometry x="560" y="150" width="40" height="40" as="geometry" />
        </mxCell>
        <mxCell id="Uk0a6IuN2yH7ym-k-NlL-16" value="1" style="edgeStyle=orthogonalEdgeStyle;curved=1;rounded=0;orthogonalLoop=1;jettySize=auto;labelBackgroundColor=none;fontFamily=Times New Roman;" parent="1" source="Uk0a6IuN2yH7ym-k-NlL-15" target="Uk0a6IuN2yH7ym-k-NlL-14" edge="1">
          <mxGeometry y="10" relative="1" as="geometry">
            <mxPoint as="offset" />
          </mxGeometry>
        </mxCell>
        <mxCell id="Uk0a6IuN2yH7ym-k-NlL-15" value="5" style="shape=ellipse;dashed=0;whitespace=wrap;aspect=fixed;perimeter=ellipsePerimeter;labelBackgroundColor=none;fontFamily=Times New Roman;" parent="1" vertex="1">
          <mxGeometry x="480" y="150" width="40" height="40" as="geometry" />
        </mxCell>
      </root>
    </mxGraphModel>
  </diagram>
  <diagram id="UL5Se84l4T3Ok_c61Oon" name="第 2 页">
    <mxGraphModel dx="424" dy="233" grid="1" gridSize="10" guides="1" tooltips="1" connect="1" arrows="1" fold="1" page="1" pageScale="1" pageWidth="827" pageHeight="1169" math="0" shadow="0">
      <root>
        <mxCell id="0" />
        <mxCell id="1" parent="0" />
        <mxCell id="wIRm04QQZilNptI9hJvJ-2" value="1" style="shape=ellipse;dashed=0;whitespace=wrap;aspect=fixed;perimeter=ellipsePerimeter;labelBackgroundColor=none;fontFamily=Times New Roman;" parent="1" vertex="1">
          <mxGeometry x="240" y="80" width="40" height="40" as="geometry" />
        </mxCell>
        <mxCell id="miRZOksBkr2RMIpvzrER-6" value="0" style="rounded=0;orthogonalLoop=1;jettySize=auto;labelBackgroundColor=none;fontFamily=Times New Roman;" parent="1" source="wIRm04QQZilNptI9hJvJ-4" target="wIRm04QQZilNptI9hJvJ-6" edge="1">
          <mxGeometry x="0.1813" y="9" relative="1" as="geometry">
            <mxPoint as="offset" />
          </mxGeometry>
        </mxCell>
        <mxCell id="miRZOksBkr2RMIpvzrER-7" value="1" style="rounded=0;orthogonalLoop=1;jettySize=auto;labelBackgroundColor=none;fontFamily=Times New Roman;" parent="1" source="wIRm04QQZilNptI9hJvJ-4" target="wIRm04QQZilNptI9hJvJ-10" edge="1">
          <mxGeometry x="0.1813" y="-9" relative="1" as="geometry">
            <mxPoint as="offset" />
          </mxGeometry>
        </mxCell>
        <mxCell id="wIRm04QQZilNptI9hJvJ-4" value="2" style="shape=ellipse;dashed=0;whitespace=wrap;aspect=fixed;perimeter=ellipsePerimeter;labelBackgroundColor=none;fontFamily=Times New Roman;" parent="1" vertex="1">
          <mxGeometry x="240" y="160" width="40" height="40" as="geometry" />
        </mxCell>
        <mxCell id="miRZOksBkr2RMIpvzrER-9" value="1" style="edgeStyle=none;rounded=0;orthogonalLoop=1;jettySize=auto;labelBackgroundColor=none;fontFamily=Times New Roman;" parent="1" source="wIRm04QQZilNptI9hJvJ-6" target="wIRm04QQZilNptI9hJvJ-10" edge="1">
          <mxGeometry y="10" relative="1" as="geometry">
            <mxPoint as="offset" />
          </mxGeometry>
        </mxCell>
        <mxCell id="wIRm04QQZilNptI9hJvJ-6" value="3" style="shape=ellipse;dashed=0;whitespace=wrap;aspect=fixed;perimeter=ellipsePerimeter;labelBackgroundColor=none;fontFamily=Times New Roman;" parent="1" vertex="1">
          <mxGeometry x="320" y="120" width="40" height="40" as="geometry" />
        </mxCell>
        <mxCell id="miRZOksBkr2RMIpvzrER-10" value="0" style="edgeStyle=none;rounded=0;orthogonalLoop=1;jettySize=auto;labelBackgroundColor=none;fontFamily=Times New Roman;" parent="1" source="wIRm04QQZilNptI9hJvJ-10" target="wIRm04QQZilNptI9hJvJ-15" edge="1">
          <mxGeometry x="-0.181" y="-9" relative="1" as="geometry">
            <mxPoint as="offset" />
          </mxGeometry>
        </mxCell>
        <mxCell id="wIRm04QQZilNptI9hJvJ-10" value="4" style="shape=ellipse;dashed=0;whitespace=wrap;aspect=fixed;perimeter=ellipsePerimeter;labelBackgroundColor=none;fontFamily=Times New Roman;" parent="1" vertex="1">
          <mxGeometry x="320" y="200" width="40" height="40" as="geometry" />
        </mxCell>
        <mxCell id="miRZOksBkr2RMIpvzrER-1" value="0" style="rounded=0;orthogonalLoop=1;jettySize=auto;labelBackgroundColor=none;fontFamily=Times New Roman;" parent="1" source="wIRm04QQZilNptI9hJvJ-12" target="wIRm04QQZilNptI9hJvJ-2" edge="1">
          <mxGeometry x="0.1813" y="9" relative="1" as="geometry">
            <mxPoint as="offset" />
          </mxGeometry>
        </mxCell>
        <mxCell id="miRZOksBkr2RMIpvzrER-2" value="1" style="edgeStyle=none;rounded=0;orthogonalLoop=1;jettySize=auto;labelBackgroundColor=none;fontFamily=Times New Roman;" parent="1" source="wIRm04QQZilNptI9hJvJ-12" target="wIRm04QQZilNptI9hJvJ-4" edge="1">
          <mxGeometry x="0.1813" y="-9" relative="1" as="geometry">
            <mxPoint as="offset" />
          </mxGeometry>
        </mxCell>
        <mxCell id="wIRm04QQZilNptI9hJvJ-12" value="0" style="shape=ellipse;dashed=0;whitespace=wrap;aspect=fixed;perimeter=ellipsePerimeter;labelBackgroundColor=none;fontFamily=Times New Roman;" parent="1" vertex="1">
          <mxGeometry x="160" y="120" width="40" height="40" as="geometry" />
        </mxCell>
        <mxCell id="miRZOksBkr2RMIpvzrER-14" value="0" style="rounded=0;orthogonalLoop=1;jettySize=auto;labelBackgroundColor=none;fontFamily=Times New Roman;" parent="1" source="wIRm04QQZilNptI9hJvJ-15" target="wIRm04QQZilNptI9hJvJ-6" edge="1">
          <mxGeometry x="0.181" y="-9" relative="1" as="geometry">
            <mxPoint as="offset" />
          </mxGeometry>
        </mxCell>
        <mxCell id="miRZOksBkr2RMIpvzrER-15" value="1" style="edgeStyle=orthogonalEdgeStyle;rounded=0;orthogonalLoop=1;jettySize=auto;curved=1;labelBackgroundColor=none;fontFamily=Times New Roman;" parent="1" source="wIRm04QQZilNptI9hJvJ-15" target="miRZOksBkr2RMIpvzrER-12" edge="1">
          <mxGeometry y="10" relative="1" as="geometry">
            <Array as="points">
              <mxPoint x="460" y="170" />
              <mxPoint x="460" y="170" />
            </Array>
            <mxPoint as="offset" />
          </mxGeometry>
        </mxCell>
        <mxCell id="wIRm04QQZilNptI9hJvJ-15" value="5" style="shape=ellipse;dashed=0;whitespace=wrap;aspect=fixed;perimeter=ellipsePerimeter;labelBackgroundColor=none;fontFamily=Times New Roman;" parent="1" vertex="1">
          <mxGeometry x="400" y="160" width="40" height="40" as="geometry" />
        </mxCell>
        <mxCell id="miRZOksBkr2RMIpvzrER-3" value="0" style="edgeStyle=orthogonalEdgeStyle;rounded=0;orthogonalLoop=1;jettySize=auto;curved=1;labelBackgroundColor=none;fontFamily=Times New Roman;" parent="1" source="wIRm04QQZilNptI9hJvJ-2" target="wIRm04QQZilNptI9hJvJ-2" edge="1">
          <mxGeometry x="-0.612" y="10" relative="1" as="geometry">
            <Array as="points">
              <mxPoint x="260" y="60" />
            </Array>
            <mxPoint as="offset" />
          </mxGeometry>
        </mxCell>
        <mxCell id="miRZOksBkr2RMIpvzrER-5" value="1" style="edgeStyle=orthogonalEdgeStyle;curved=1;rounded=0;orthogonalLoop=1;jettySize=auto;labelBackgroundColor=none;fontFamily=Times New Roman;" parent="1" source="wIRm04QQZilNptI9hJvJ-2" target="wIRm04QQZilNptI9hJvJ-2" edge="1">
          <mxGeometry y="10" relative="1" as="geometry">
            <mxPoint as="offset" />
          </mxGeometry>
        </mxCell>
        <mxCell id="miRZOksBkr2RMIpvzrER-8" value="0" style="edgeStyle=orthogonalEdgeStyle;rounded=0;orthogonalLoop=1;jettySize=auto;curved=1;labelBackgroundColor=none;fontFamily=Times New Roman;" parent="1" source="wIRm04QQZilNptI9hJvJ-6" target="wIRm04QQZilNptI9hJvJ-6" edge="1">
          <mxGeometry y="10" relative="1" as="geometry">
            <Array as="points">
              <mxPoint x="340" y="100" />
            </Array>
            <mxPoint as="offset" />
          </mxGeometry>
        </mxCell>
        <mxCell id="miRZOksBkr2RMIpvzrER-11" value="1" style="edgeStyle=orthogonalEdgeStyle;rounded=0;orthogonalLoop=1;jettySize=auto;curved=1;labelBackgroundColor=none;fontFamily=Times New Roman;" parent="1" source="wIRm04QQZilNptI9hJvJ-10" target="wIRm04QQZilNptI9hJvJ-10" edge="1">
          <mxGeometry y="-10" relative="1" as="geometry">
            <Array as="points">
              <mxPoint x="330" y="260" />
            </Array>
            <mxPoint as="offset" />
          </mxGeometry>
        </mxCell>
        <mxCell id="miRZOksBkr2RMIpvzrER-18" value="0" style="edgeStyle=orthogonalEdgeStyle;rounded=0;orthogonalLoop=1;jettySize=auto;curved=1;labelBackgroundColor=none;fontFamily=Times New Roman;" parent="1" source="miRZOksBkr2RMIpvzrER-12" target="wIRm04QQZilNptI9hJvJ-15" edge="1">
          <mxGeometry y="10" relative="1" as="geometry">
            <Array as="points">
              <mxPoint x="460" y="190" />
              <mxPoint x="460" y="190" />
            </Array>
            <mxPoint as="offset" />
          </mxGeometry>
        </mxCell>
        <mxCell id="miRZOksBkr2RMIpvzrER-19" value="1" style="rounded=0;orthogonalLoop=1;jettySize=auto;edgeStyle=orthogonalEdgeStyle;curved=1;labelBackgroundColor=none;fontFamily=Times New Roman;" parent="1" source="miRZOksBkr2RMIpvzrER-12" target="wIRm04QQZilNptI9hJvJ-10" edge="1">
          <mxGeometry x="0.0424" y="10" relative="1" as="geometry">
            <Array as="points">
              <mxPoint x="500" y="230" />
            </Array>
            <mxPoint as="offset" />
          </mxGeometry>
        </mxCell>
        <mxCell id="miRZOksBkr2RMIpvzrER-12" value="6" style="shape=ellipse;dashed=0;whitespace=wrap;aspect=fixed;perimeter=ellipsePerimeter;labelBackgroundColor=none;fontFamily=Times New Roman;" parent="1" vertex="1">
          <mxGeometry x="480" y="160" width="40" height="40" as="geometry" />
        </mxCell>
      </root>
    </mxGraphModel>
  </diagram>
</mxfile>
